<?xml version="1.0" encoding="utf-8"?>
<!-- Generator: Adobe Illustrator 25.0.0, SVG Export Plug-In . SVG Version: 6.00 Build 0)  -->
<svg version="1.1" id="Layer_1" xmlns="http://www.w3.org/2000/svg" xmlns:xlink="http://www.w3.org/1999/xlink" x="0px" y="0px"
	 viewBox="0 0 50 44.7" style="enable-background:new 0 0 50 44.7;" xml:space="preserve">
<style type="text/css">
	.st0{fill:url(#SVGID_1_);}
	.st1{fill:url(#SVGID_2_);}
	.st2{fill:url(#SVGID_3_);}
	.st3{fill:url(#SVGID_4_);}
	.st4{fill:url(#SVGID_5_);}
	.st5{fill:url(#SVGID_6_);}
	.st6{fill:url(#SVGID_7_);}
	.st7{fill:url(#SVGID_8_);}
	.st8{fill:url(#SVGID_9_);}
</style>
<g>
	<linearGradient id="SVGID_1_" gradientUnits="userSpaceOnUse" x1="-0.9334" y1="2.1023" x2="50.9326" y2="42.6245">
		<stop  offset="0" style="stop-color:#034EA2"/>
		<stop  offset="5.317605e-02" style="stop-color:#164A9B"/>
		<stop  offset="0.251" style="stop-color:#563A83"/>
		<stop  offset="0.4396" style="stop-color:#8C2E70"/>
		<stop  offset="0.6139" style="stop-color:#B62460"/>
		<stop  offset="0.7708" style="stop-color:#D41D55"/>
		<stop  offset="0.9047" style="stop-color:#E6194E"/>
		<stop  offset="1" style="stop-color:#ED174C"/>
	</linearGradient>
	<path class="st0" d="M48.6,0H1.4C0.6,0,0,0.6,0,1.4v42c0,0.8,0.6,1.4,1.4,1.4h21.9c0.4,0,0.7-0.3,0.7-0.7s-0.3-0.7-0.7-0.7H1.5
		V11.7l21.8,0c0.4,0,0.7-0.3,0.7-0.7c0-0.4-0.3-0.7-0.7-0.7l-21.8,0V1.5h47.1v8.8l-21.8,0c-0.4,0-0.7,0.3-0.7,0.7
		c0,0.4,0.3,0.7,0.7,0.7l21.8,0v31.5H26.8c-0.4,0-0.7,0.3-0.7,0.7s0.3,0.7,0.7,0.7h21.8c0.8,0,1.4-0.6,1.4-1.4v-42
		C50,0.6,49.4,0,48.6,0z"/>
	<linearGradient id="SVGID_2_" gradientUnits="userSpaceOnUse" x1="5.8551" y1="19.1047" x2="25.7819" y2="34.6732">
		<stop  offset="0" style="stop-color:#034EA2"/>
		<stop  offset="5.317605e-02" style="stop-color:#164A9B"/>
		<stop  offset="0.251" style="stop-color:#563A83"/>
		<stop  offset="0.4396" style="stop-color:#8C2E70"/>
		<stop  offset="0.6139" style="stop-color:#B62460"/>
		<stop  offset="0.7708" style="stop-color:#D41D55"/>
		<stop  offset="0.9047" style="stop-color:#E6194E"/>
		<stop  offset="1" style="stop-color:#ED174C"/>
	</linearGradient>
	<path class="st1" d="M24.6,34.6c1.4,0,2.6-1.2,2.6-2.6c0-1.2-0.8-2.2-1.9-2.5v-5.1c1.1-0.3,1.9-1.3,1.9-2.5c0-1.4-1.2-2.6-2.6-2.6
		c-0.7,0-1.3,0.3-1.8,0.7l-4.4-2.5c0-0.2,0-0.3,0-0.5c0-1.4-1.2-2.6-2.6-2.6c-1.4,0-2.6,1.2-2.6,2.6c0,0.2,0,0.3,0,0.5l-4.4,2.5
		c-0.5-0.4-1.1-0.7-1.8-0.7c-1.4,0-2.6,1.2-2.6,2.6c0,1.2,0.8,2.2,1.9,2.5v5.2c-1.1,0.3-1.9,1.3-1.9,2.5c0,1.4,1.2,2.6,2.6,2.6
		c0.7,0,1.3-0.2,1.7-0.7l4.4,2.5c0,0.2,0,0.3,0,0.5c0,1.4,1.2,2.6,2.6,2.6c1.4,0,2.6-1.2,2.6-2.6c0-0.2,0-0.3,0-0.5l4.5-2.5
		C23.3,34.3,23.9,34.6,24.6,34.6L24.6,34.6z M25.7,32c0,0.6-0.5,1.1-1.1,1.1s-1.1-0.5-1.1-1.1c0-0.6,0.5-1.1,1.1-1.1
		C25.2,30.8,25.7,31.3,25.7,32z M24.6,20.7c0.6,0,1.1,0.5,1.1,1.1c0,0.6-0.5,1.1-1.1,1.1c-0.6,0-1.1-0.5-1.1-1.1
		C23.4,21.2,23.9,20.7,24.6,20.7L24.6,20.7z M15.8,15.8c0.6,0,1.1,0.5,1.1,1.1s-0.5,1.1-1.1,1.1c-0.6,0-1.2-0.5-1.2-1.1
		S15.2,15.8,15.8,15.8z M15.8,19.6c0.7,0,1.4-0.3,1.9-0.8l4.3,2.4c-0.1,0.2-0.1,0.4-0.1,0.7c0,0.2,0,0.5,0.1,0.7l-4.3,2.4
		c-0.5-0.5-1.1-0.8-1.9-0.8c-0.7,0-1.4,0.3-1.9,0.8l-4.3-2.4c0.1-0.2,0.1-0.4,0.1-0.7c0-0.2,0-0.5-0.1-0.7l4.3-2.4
		C14.4,19.2,15.1,19.6,15.8,19.6L15.8,19.6z M15.8,27.8c-0.6,0-1.2-0.5-1.2-1.1s0.5-1.1,1.2-1.1c0.6,0,1.1,0.5,1.1,1.1
		S16.4,27.8,15.8,27.8z M5.9,21.8c0-0.6,0.5-1.1,1.1-1.1c0.6,0,1.1,0.5,1.1,1.1c0,0.2-0.1,0.4-0.2,0.6c0,0,0,0,0,0c0,0,0,0,0,0
		c-0.2,0.3-0.6,0.5-1,0.5C6.4,23,5.9,22.4,5.9,21.8L5.9,21.8z M7.1,33.1c-0.6,0-1.1-0.5-1.1-1.1c0-0.6,0.5-1.1,1.1-1.1
		s1.1,0.5,1.1,1.1C8.2,32.6,7.7,33.1,7.1,33.1z M9.6,32.7c0.1-0.2,0.1-0.5,0.1-0.7c0-1.2-0.8-2.2-1.9-2.5v-5.1
		c0.4-0.1,0.7-0.3,1-0.6l4.4,2.5c0,0.2,0,0.3,0,0.5c0,1.2,0.8,2.2,1.9,2.5v5.2c-0.4,0.1-0.8,0.4-1.2,0.7L9.6,32.7z M15.8,38
		c-0.6,0-1.2-0.5-1.2-1.1c0-0.6,0.5-1.1,1.2-1.1c0.6,0,1.1,0.5,1.1,1.1C17,37.5,16.4,38,15.8,38z M16.5,34.4v-5.2
		c1.1-0.3,1.9-1.3,1.9-2.5c0-0.2,0-0.3,0-0.5l4.4-2.5c0.3,0.3,0.6,0.5,1,0.6v5.2C22.8,29.8,22,30.8,22,32c0,0.2,0,0.5,0.1,0.7
		l-4.4,2.4C17.4,34.8,17,34.5,16.5,34.4L16.5,34.4z"/>
	<linearGradient id="SVGID_3_" gradientUnits="userSpaceOnUse" x1="32.1155" y1="14.6067" x2="43.5038" y2="23.5042">
		<stop  offset="0" style="stop-color:#034EA2"/>
		<stop  offset="5.317605e-02" style="stop-color:#164A9B"/>
		<stop  offset="0.251" style="stop-color:#563A83"/>
		<stop  offset="0.4396" style="stop-color:#8C2E70"/>
		<stop  offset="0.6139" style="stop-color:#B62460"/>
		<stop  offset="0.7708" style="stop-color:#D41D55"/>
		<stop  offset="0.9047" style="stop-color:#E6194E"/>
		<stop  offset="1" style="stop-color:#ED174C"/>
	</linearGradient>
	<path class="st2" d="M31.3,21.7h13.1c0.7,0,1.2-0.5,1.2-1.2v-2.8c0-0.7-0.5-1.2-1.2-1.2H31.3c-0.7,0-1.2,0.5-1.2,1.2v2.8
		C30.1,21.1,30.6,21.7,31.3,21.7L31.3,21.7z M31.5,17.9h12.6v2.3H31.5V17.9z"/>
	<linearGradient id="SVGID_4_" gradientUnits="userSpaceOnUse" x1="31.2475" y1="23.5757" x2="39.7927" y2="30.252">
		<stop  offset="0" style="stop-color:#034EA2"/>
		<stop  offset="5.317605e-02" style="stop-color:#164A9B"/>
		<stop  offset="0.251" style="stop-color:#563A83"/>
		<stop  offset="0.4396" style="stop-color:#8C2E70"/>
		<stop  offset="0.6139" style="stop-color:#B62460"/>
		<stop  offset="0.7708" style="stop-color:#D41D55"/>
		<stop  offset="0.9047" style="stop-color:#E6194E"/>
		<stop  offset="1" style="stop-color:#ED174C"/>
	</linearGradient>
	<path class="st3" d="M30.1,28.3c0,0.7,0.5,1.2,1.2,1.2h8.5c0.7,0,1.2-0.5,1.2-1.2v-2.8c0-0.7-0.5-1.2-1.2-1.2h-8.5
		c-0.7,0-1.2,0.5-1.2,1.2L30.1,28.3z M31.5,25.8h8v2.3h-8V25.8z"/>
	<linearGradient id="SVGID_5_" gradientUnits="userSpaceOnUse" x1="31.62" y1="30.9554" x2="41.3857" y2="38.5852">
		<stop  offset="0" style="stop-color:#034EA2"/>
		<stop  offset="5.317605e-02" style="stop-color:#164A9B"/>
		<stop  offset="0.251" style="stop-color:#563A83"/>
		<stop  offset="0.4396" style="stop-color:#8C2E70"/>
		<stop  offset="0.6139" style="stop-color:#B62460"/>
		<stop  offset="0.7708" style="stop-color:#D41D55"/>
		<stop  offset="0.9047" style="stop-color:#E6194E"/>
		<stop  offset="1" style="stop-color:#ED174C"/>
	</linearGradient>
	<path class="st4" d="M30.1,36.2c0,0.7,0.5,1.2,1.2,1.2h10.5c0.7,0,1.2-0.5,1.2-1.2v-2.8c0-0.7-0.5-1.2-1.2-1.2H31.3
		c-0.7,0-1.2,0.5-1.2,1.2L30.1,36.2z M31.5,33.6h9.9v2.3h-9.9V33.6z"/>
	<linearGradient id="SVGID_6_" gradientUnits="userSpaceOnUse" x1="10.5601" y1="8.835835e-02" x2="24.9178" y2="11.3058">
		<stop  offset="0" style="stop-color:#034EA2"/>
		<stop  offset="5.317605e-02" style="stop-color:#164A9B"/>
		<stop  offset="0.251" style="stop-color:#563A83"/>
		<stop  offset="0.4396" style="stop-color:#8C2E70"/>
		<stop  offset="0.6139" style="stop-color:#B62460"/>
		<stop  offset="0.7708" style="stop-color:#D41D55"/>
		<stop  offset="0.9047" style="stop-color:#E6194E"/>
		<stop  offset="1" style="stop-color:#ED174C"/>
	</linearGradient>
	<path class="st5" d="M29.1,5.7c0-0.4-0.3-0.7-0.7-0.7H7.1C6.7,5,6.4,5.3,6.4,5.7s0.3,0.7,0.7,0.7h21.3C28.8,6.4,29.1,6.1,29.1,5.7z
		"/>
	<linearGradient id="SVGID_7_" gradientUnits="userSpaceOnUse" x1="33.3688" y1="5.2481" x2="34.5236" y2="6.1504">
		<stop  offset="0" style="stop-color:#034EA2"/>
		<stop  offset="5.317605e-02" style="stop-color:#164A9B"/>
		<stop  offset="0.251" style="stop-color:#563A83"/>
		<stop  offset="0.4396" style="stop-color:#8C2E70"/>
		<stop  offset="0.6139" style="stop-color:#B62460"/>
		<stop  offset="0.7708" style="stop-color:#D41D55"/>
		<stop  offset="0.9047" style="stop-color:#E6194E"/>
		<stop  offset="1" style="stop-color:#ED174C"/>
	</linearGradient>
	<path class="st6" d="M34.5,6.2L34.5,6.2c0.3-0.3,0.3-0.8,0-1c-0.3-0.3-0.8-0.3-1,0s-0.3,0.7,0,1c0.1,0.1,0.3,0.2,0.5,0.2
		S34.3,6.4,34.5,6.2z"/>
	<linearGradient id="SVGID_8_" gradientUnits="userSpaceOnUse" x1="37.0589" y1="5.2481" x2="38.2137" y2="6.1504">
		<stop  offset="0" style="stop-color:#034EA2"/>
		<stop  offset="5.317605e-02" style="stop-color:#164A9B"/>
		<stop  offset="0.251" style="stop-color:#563A83"/>
		<stop  offset="0.4396" style="stop-color:#8C2E70"/>
		<stop  offset="0.6139" style="stop-color:#B62460"/>
		<stop  offset="0.7708" style="stop-color:#D41D55"/>
		<stop  offset="0.9047" style="stop-color:#E6194E"/>
		<stop  offset="1" style="stop-color:#ED174C"/>
	</linearGradient>
	<path class="st7" d="M38.2,6.2L38.2,6.2c0.3-0.3,0.3-0.8,0-1c-0.3-0.3-0.8-0.3-1,0s-0.3,0.7,0,1c0.1,0.1,0.3,0.2,0.5,0.2
		C37.8,6.4,38,6.4,38.2,6.2z"/>
	<linearGradient id="SVGID_9_" gradientUnits="userSpaceOnUse" x1="40.7516" y1="5.2481" x2="41.9065" y2="6.1504">
		<stop  offset="0" style="stop-color:#034EA2"/>
		<stop  offset="5.317605e-02" style="stop-color:#164A9B"/>
		<stop  offset="0.251" style="stop-color:#563A83"/>
		<stop  offset="0.4396" style="stop-color:#8C2E70"/>
		<stop  offset="0.6139" style="stop-color:#B62460"/>
		<stop  offset="0.7708" style="stop-color:#D41D55"/>
		<stop  offset="0.9047" style="stop-color:#E6194E"/>
		<stop  offset="1" style="stop-color:#ED174C"/>
	</linearGradient>
	<path class="st8" d="M41.8,6.2L41.8,6.2c0.3-0.3,0.3-0.8,0-1c-0.3-0.3-0.8-0.3-1,0s-0.3,0.7,0,1c0.1,0.1,0.3,0.2,0.5,0.2
		C41.5,6.4,41.7,6.4,41.8,6.2z"/>
</g>
</svg>
