<?xml version="1.0" encoding="utf-8"?>
<!-- Generator: Adobe Illustrator 24.3.0, SVG Export Plug-In . SVG Version: 6.00 Build 0)  -->
<svg version="1.1" id="Capa_1" xmlns="http://www.w3.org/2000/svg" xmlns:xlink="http://www.w3.org/1999/xlink" x="0px" y="0px"
	 viewBox="0 0 34.7 50" style="enable-background:new 0 0 34.7 50;" xml:space="preserve">
<style type="text/css">
	.st0{fill:url(#SVGID_1_);}
	.st1{fill:url(#SVGID_2_);}
	.st2{fill:url(#SVGID_3_);}
	.st3{fill:url(#SVGID_4_);}
	.st4{fill:url(#SVGID_5_);}
	.st5{fill:url(#SVGID_6_);}
	.st6{fill:url(#SVGID_7_);}
	.st7{fill:url(#SVGID_8_);}
	.st8{fill:url(#SVGID_9_);}
	.st9{fill:url(#SVGID_10_);}
	.st10{fill:url(#SVGID_11_);}
	.st11{fill:url(#SVGID_12_);}
	.st12{fill:url(#SVGID_13_);}
	.st13{fill:url(#SVGID_14_);}
</style>
<g>
	
		<linearGradient id="SVGID_1_" gradientUnits="userSpaceOnUse" x1="9.5042" y1="46.6093" x2="25.0932" y2="58.7887" gradientTransform="matrix(1 0 0 1 0 -18)">
		<stop  offset="0" style="stop-color:#034EA2"/>
		<stop  offset="5.317605e-02" style="stop-color:#164A9B"/>
		<stop  offset="0.251" style="stop-color:#563A83"/>
		<stop  offset="0.4396" style="stop-color:#8C2E70"/>
		<stop  offset="0.6139" style="stop-color:#B62460"/>
		<stop  offset="0.7708" style="stop-color:#D41D55"/>
		<stop  offset="0.9047" style="stop-color:#E6194E"/>
		<stop  offset="1" style="stop-color:#ED174C"/>
	</linearGradient>
	<path class="st0" d="M27.9,36.7v-4c0-0.7-0.6-1.3-1.3-1.3H8c-0.7,0-1.3,0.6-1.3,1.3v4C6.7,37.4,7.3,38,8,38h18.7
		C27.3,38,27.9,37.4,27.9,36.7z M26.5,36.5H8.1v-3.7h18.4V36.5z"/>
	
		<linearGradient id="SVGID_2_" gradientUnits="userSpaceOnUse" x1="-4.5793" y1="25.9227" x2="39.1531" y2="60.0901" gradientTransform="matrix(1 0 0 1 0 -18)">
		<stop  offset="0" style="stop-color:#034EA2"/>
		<stop  offset="5.317605e-02" style="stop-color:#164A9B"/>
		<stop  offset="0.251" style="stop-color:#563A83"/>
		<stop  offset="0.4396" style="stop-color:#8C2E70"/>
		<stop  offset="0.6139" style="stop-color:#B62460"/>
		<stop  offset="0.7708" style="stop-color:#D41D55"/>
		<stop  offset="0.9047" style="stop-color:#E6194E"/>
		<stop  offset="1" style="stop-color:#ED174C"/>
	</linearGradient>
	<path class="st1" d="M31.5,0h-3.7c-0.4,0-0.7,0.3-0.7,0.7s0.3,0.7,0.7,0.7h3.7c0.9,0,1.7,0.8,1.7,1.7v25.3c-1.3,0-30.3,0-31.7,0
		V3.2c0-0.9,0.8-1.7,1.7-1.7h24.6c0.4,0,0.7-0.3,0.7-0.7S28.2,0,27.8,0H3.1C1.4,0,0,1.4,0,3.2v43.7c0,1.7,1.4,3.2,3.2,3.2h3.3
		c0.4,0,0.7-0.3,0.7-0.7s-0.3-0.7-0.7-0.7H3.2c-0.9,0-1.7-0.8-1.7-1.7V29.9h31.7v16.9c0,1-0.8,1.7-1.7,1.7h-25
		c-0.4,0-0.7,0.3-0.7,0.7s0.3,0.7,0.7,0.7h25c1.7,0,3.2-1.4,3.2-3.2c0-1.3,0-42.7,0-43.7C34.6,1.4,33.2,0,31.5,0z"/>
	
		<linearGradient id="SVGID_3_" gradientUnits="userSpaceOnUse" x1="3.9791" y1="22.5035" x2="30.6648" y2="43.3527" gradientTransform="matrix(1 0 0 1 0 -18)">
		<stop  offset="0" style="stop-color:#034EA2"/>
		<stop  offset="5.317605e-02" style="stop-color:#164A9B"/>
		<stop  offset="0.251" style="stop-color:#563A83"/>
		<stop  offset="0.4396" style="stop-color:#8C2E70"/>
		<stop  offset="0.6139" style="stop-color:#B62460"/>
		<stop  offset="0.7708" style="stop-color:#D41D55"/>
		<stop  offset="0.9047" style="stop-color:#E6194E"/>
		<stop  offset="1" style="stop-color:#ED174C"/>
	</linearGradient>
	<path class="st2" d="M5.6,3.4c-0.8,0-1.5,0.7-1.5,1.5V25c0,0.8,0.7,1.5,1.5,1.5h23.5c0.8,0,1.5-0.7,1.5-1.5c0-0.4,0-19.8,0-20.1
		c0-0.8-0.7-1.5-1.5-1.5C28,3.4,6.6,3.4,5.6,3.4z M5.5,4.9L5.5,4.9h2.9v2.3H5.5V4.9z M5.5,8.7h2.9V11H5.5V8.7z M5.5,12.5h2.9v2.3
		H5.5V12.5z M19.2,25H5.6l0,0v-8.7h13.7L19.2,25L19.2,25z M26.2,4.9h2.9l0,0v2.3h-2.9V4.9z M26.2,8.7h2.9V11h-2.9V8.7z M26.2,12.5
		h2.9v2.3h-2.9V12.5z M29.1,16.3V25l0,0h-8.4v-8.8L29.1,16.3L29.1,16.3z M9.9,11.7V7.9v-3h14.8v9.9c-0.7,0-14.1,0-14.8,0L9.9,11.7z"
		/>
	
		<linearGradient id="SVGID_4_" gradientUnits="userSpaceOnUse" x1="22.2523" y1="35.6205" x2="27.456" y2="39.6861" gradientTransform="matrix(1 0 0 1 0 -18)">
		<stop  offset="0" style="stop-color:#034EA2"/>
		<stop  offset="5.317605e-02" style="stop-color:#164A9B"/>
		<stop  offset="0.251" style="stop-color:#563A83"/>
		<stop  offset="0.4396" style="stop-color:#8C2E70"/>
		<stop  offset="0.6139" style="stop-color:#B62460"/>
		<stop  offset="0.7708" style="stop-color:#D41D55"/>
		<stop  offset="0.9047" style="stop-color:#E6194E"/>
		<stop  offset="1" style="stop-color:#ED174C"/>
	</linearGradient>
	<path class="st3" d="M22.9,21.8h3.9c0.6,0,1.1-0.5,1.1-1.1v-2.1c0-0.6-0.5-1.1-1.1-1.1h-3.9c-0.6,0-1.1,0.5-1.1,1.1v2.1
		C21.8,21.3,22.3,21.8,22.9,21.8z M23.3,18.9h3.2v1.5h-3.2V18.9z"/>
	
		<linearGradient id="SVGID_5_" gradientUnits="userSpaceOnUse" x1="7.3656" y1="35.3699" x2="9.2444" y2="36.8378" gradientTransform="matrix(1 0 0 1 0 -18)">
		<stop  offset="0" style="stop-color:#034EA2"/>
		<stop  offset="5.317605e-02" style="stop-color:#164A9B"/>
		<stop  offset="0.251" style="stop-color:#563A83"/>
		<stop  offset="0.4396" style="stop-color:#8C2E70"/>
		<stop  offset="0.6139" style="stop-color:#B62460"/>
		<stop  offset="0.7708" style="stop-color:#D41D55"/>
		<stop  offset="0.9047" style="stop-color:#E6194E"/>
		<stop  offset="1" style="stop-color:#ED174C"/>
	</linearGradient>
	<path class="st4" d="M7.7,17.4c-0.4,0-0.7,0.3-0.7,0.7s0.3,0.7,0.7,0.7h1.2c0.4,0,0.7-0.3,0.7-0.7s-0.3-0.7-0.7-0.7H7.7z"/>
	
		<linearGradient id="SVGID_6_" gradientUnits="userSpaceOnUse" x1="11.4362" y1="35.347" x2="13.315" y2="36.8149" gradientTransform="matrix(1 0 0 1 0 -18)">
		<stop  offset="0" style="stop-color:#034EA2"/>
		<stop  offset="5.317605e-02" style="stop-color:#164A9B"/>
		<stop  offset="0.251" style="stop-color:#563A83"/>
		<stop  offset="0.4396" style="stop-color:#8C2E70"/>
		<stop  offset="0.6139" style="stop-color:#B62460"/>
		<stop  offset="0.7708" style="stop-color:#D41D55"/>
		<stop  offset="0.9047" style="stop-color:#E6194E"/>
		<stop  offset="1" style="stop-color:#ED174C"/>
	</linearGradient>
	<path class="st5" d="M11.8,18.8H13c0.4,0,0.7-0.3,0.7-0.7s-0.3-0.7-0.7-0.7h-1.2c-0.4,0-0.7,0.3-0.7,0.7S11.4,18.8,11.8,18.8z"/>
	
		<linearGradient id="SVGID_7_" gradientUnits="userSpaceOnUse" x1="15.4629" y1="35.3679" x2="17.3417" y2="36.8358" gradientTransform="matrix(1 0 0 1 0 -18)">
		<stop  offset="0" style="stop-color:#034EA2"/>
		<stop  offset="5.317605e-02" style="stop-color:#164A9B"/>
		<stop  offset="0.251" style="stop-color:#563A83"/>
		<stop  offset="0.4396" style="stop-color:#8C2E70"/>
		<stop  offset="0.6139" style="stop-color:#B62460"/>
		<stop  offset="0.7708" style="stop-color:#D41D55"/>
		<stop  offset="0.9047" style="stop-color:#E6194E"/>
		<stop  offset="1" style="stop-color:#ED174C"/>
	</linearGradient>
	<path class="st6" d="M15.8,18.8H17c0.4,0,0.7-0.3,0.7-0.7s-0.3-0.7-0.7-0.7h-1.2c-0.4,0-0.7,0.3-0.7,0.7S15.4,18.8,15.8,18.8z"/>
	
		<linearGradient id="SVGID_8_" gradientUnits="userSpaceOnUse" x1="7.3845" y1="37.8848" x2="9.2633" y2="39.3526" gradientTransform="matrix(1 0 0 1 0 -18)">
		<stop  offset="0" style="stop-color:#034EA2"/>
		<stop  offset="5.317605e-02" style="stop-color:#164A9B"/>
		<stop  offset="0.251" style="stop-color:#563A83"/>
		<stop  offset="0.4396" style="stop-color:#8C2E70"/>
		<stop  offset="0.6139" style="stop-color:#B62460"/>
		<stop  offset="0.7708" style="stop-color:#D41D55"/>
		<stop  offset="0.9047" style="stop-color:#E6194E"/>
		<stop  offset="1" style="stop-color:#ED174C"/>
	</linearGradient>
	<path class="st7" d="M8.9,19.9H7.7c-0.4,0-0.7,0.3-0.7,0.7s0.3,0.7,0.7,0.7h1.2c0.4,0,0.7-0.3,0.7-0.7S9.3,19.9,8.9,19.9z"/>
	
		<linearGradient id="SVGID_9_" gradientUnits="userSpaceOnUse" x1="11.4066" y1="37.9239" x2="13.2854" y2="39.3917" gradientTransform="matrix(1 0 0 1 0 -18)">
		<stop  offset="0" style="stop-color:#034EA2"/>
		<stop  offset="5.317605e-02" style="stop-color:#164A9B"/>
		<stop  offset="0.251" style="stop-color:#563A83"/>
		<stop  offset="0.4396" style="stop-color:#8C2E70"/>
		<stop  offset="0.6139" style="stop-color:#B62460"/>
		<stop  offset="0.7708" style="stop-color:#D41D55"/>
		<stop  offset="0.9047" style="stop-color:#E6194E"/>
		<stop  offset="1" style="stop-color:#ED174C"/>
	</linearGradient>
	<path class="st8" d="M11.8,21.4H13c0.4,0,0.7-0.3,0.7-0.7S13.4,20,13,20h-1.2c-0.4,0-0.7,0.3-0.7,0.7S11.4,21.4,11.8,21.4z"/>
	
		<linearGradient id="SVGID_10_" gradientUnits="userSpaceOnUse" x1="15.4333" y1="37.9448" x2="17.3121" y2="39.4126" gradientTransform="matrix(1 0 0 1 0 -18)">
		<stop  offset="0" style="stop-color:#034EA2"/>
		<stop  offset="5.317605e-02" style="stop-color:#164A9B"/>
		<stop  offset="0.251" style="stop-color:#563A83"/>
		<stop  offset="0.4396" style="stop-color:#8C2E70"/>
		<stop  offset="0.6139" style="stop-color:#B62460"/>
		<stop  offset="0.7708" style="stop-color:#D41D55"/>
		<stop  offset="0.9047" style="stop-color:#E6194E"/>
		<stop  offset="1" style="stop-color:#ED174C"/>
	</linearGradient>
	<path class="st9" d="M15.8,21.4H17c0.4,0,0.7-0.3,0.7-0.7S17.4,20,17,20h-1.2c-0.4,0-0.7,0.3-0.7,0.7S15.4,21.4,15.8,21.4z"/>
	
		<linearGradient id="SVGID_11_" gradientUnits="userSpaceOnUse" x1="7.355" y1="40.4616" x2="9.2338" y2="41.9295" gradientTransform="matrix(1 0 0 1 0 -18)">
		<stop  offset="0" style="stop-color:#034EA2"/>
		<stop  offset="5.317605e-02" style="stop-color:#164A9B"/>
		<stop  offset="0.251" style="stop-color:#563A83"/>
		<stop  offset="0.4396" style="stop-color:#8C2E70"/>
		<stop  offset="0.6139" style="stop-color:#B62460"/>
		<stop  offset="0.7708" style="stop-color:#D41D55"/>
		<stop  offset="0.9047" style="stop-color:#E6194E"/>
		<stop  offset="1" style="stop-color:#ED174C"/>
	</linearGradient>
	<path class="st10" d="M8.9,22.5H7.7c-0.4,0-0.7,0.3-0.7,0.7s0.3,0.7,0.7,0.7h1.2c0.4,0,0.7-0.3,0.7-0.7S9.3,22.5,8.9,22.5z"/>
	
		<linearGradient id="SVGID_12_" gradientUnits="userSpaceOnUse" x1="11.4256" y1="40.4387" x2="13.3044" y2="41.9066" gradientTransform="matrix(1 0 0 1 0 -18)">
		<stop  offset="0" style="stop-color:#034EA2"/>
		<stop  offset="5.317605e-02" style="stop-color:#164A9B"/>
		<stop  offset="0.251" style="stop-color:#563A83"/>
		<stop  offset="0.4396" style="stop-color:#8C2E70"/>
		<stop  offset="0.6139" style="stop-color:#B62460"/>
		<stop  offset="0.7708" style="stop-color:#D41D55"/>
		<stop  offset="0.9047" style="stop-color:#E6194E"/>
		<stop  offset="1" style="stop-color:#ED174C"/>
	</linearGradient>
	<path class="st11" d="M11.8,23.9H13c0.4,0,0.7-0.3,0.7-0.7s-0.3-0.7-0.7-0.7h-1.2c-0.4,0-0.7,0.3-0.7,0.7S11.4,23.9,11.8,23.9z"/>
	
		<linearGradient id="SVGID_13_" gradientUnits="userSpaceOnUse" x1="15.4523" y1="40.4596" x2="17.3311" y2="41.9275" gradientTransform="matrix(1 0 0 1 0 -18)">
		<stop  offset="0" style="stop-color:#034EA2"/>
		<stop  offset="5.317605e-02" style="stop-color:#164A9B"/>
		<stop  offset="0.251" style="stop-color:#563A83"/>
		<stop  offset="0.4396" style="stop-color:#8C2E70"/>
		<stop  offset="0.6139" style="stop-color:#B62460"/>
		<stop  offset="0.7708" style="stop-color:#D41D55"/>
		<stop  offset="0.9047" style="stop-color:#E6194E"/>
		<stop  offset="1" style="stop-color:#ED174C"/>
	</linearGradient>
	<path class="st12" d="M15.8,23.9H17c0.4,0,0.7-0.3,0.7-0.7s-0.3-0.7-0.7-0.7h-1.2c-0.4,0-0.7,0.3-0.7,0.7S15.4,23.9,15.8,23.9z"/>
	
		<linearGradient id="SVGID_14_" gradientUnits="userSpaceOnUse" x1="13.0728" y1="49.411" x2="21.5008" y2="55.9957" gradientTransform="matrix(1 0 0 1 0 -18)">
		<stop  offset="0" style="stop-color:#034EA2"/>
		<stop  offset="5.317605e-02" style="stop-color:#164A9B"/>
		<stop  offset="0.251" style="stop-color:#563A83"/>
		<stop  offset="0.4396" style="stop-color:#8C2E70"/>
		<stop  offset="0.6139" style="stop-color:#B62460"/>
		<stop  offset="0.7708" style="stop-color:#D41D55"/>
		<stop  offset="0.9047" style="stop-color:#E6194E"/>
		<stop  offset="1" style="stop-color:#ED174C"/>
	</linearGradient>
	<path class="st13" d="M11.4,35.4h11.7c0.4,0,0.7-0.3,0.7-0.7S23.6,34,23.2,34H11.4c-0.4,0-0.7,0.3-0.7,0.7S11,35.4,11.4,35.4z"/>
</g>
</svg>
