<?xml version="1.0" encoding="utf-8"?>
<!-- Generator: Adobe Illustrator 25.4.1, SVG Export Plug-In . SVG Version: 6.00 Build 0)  -->
<svg version="1.1" id="Layer_1" xmlns="http://www.w3.org/2000/svg" xmlns:xlink="http://www.w3.org/1999/xlink" x="0px" y="0px"
	 viewBox="0 0 53.6 50" style="enable-background:new 0 0 53.6 50;" xml:space="preserve">
<style type="text/css">
	.st0{fill:none;stroke:url(#SVGID_1_);stroke-width:1.5;}
</style>
<g>
	<linearGradient id="SVGID_1_" gradientUnits="userSpaceOnUse" x1="0.8337" y1="25" x2="52.7698" y2="25">
		<stop  offset="0" style="stop-color:#034EA2"/>
		<stop  offset="5.317605e-02" style="stop-color:#164A9B"/>
		<stop  offset="0.251" style="stop-color:#563A83"/>
		<stop  offset="0.4396" style="stop-color:#8C2E70"/>
		<stop  offset="0.6139" style="stop-color:#B62460"/>
		<stop  offset="0.7708" style="stop-color:#D41D55"/>
		<stop  offset="0.9047" style="stop-color:#E6194E"/>
		<stop  offset="1" style="stop-color:#ED174C"/>
	</linearGradient>
	<path class="st0" d="M31.7,5.5L31.7,5.5C31.7,5.5,31.7,5.5,31.7,5.5L31.7,5.5L31.7,5.5L31.7,5.5z M31.7,5.5
		C31.7,5.5,31.7,5.5,31.7,5.5C31.7,5.5,31.7,5.5,31.7,5.5C31.7,5.5,31.7,5.5,31.7,5.5C31.7,5.5,31.7,5.5,31.7,5.5 M31.7,5.5
		L31.7,5.5 M31.7,5.5L31.7,5.5C31.7,5.5,31.7,5.5,31.7,5.5C31.7,5.5,31.7,5.5,31.7,5.5z M31.5,19.8l3.8,3L31.7,29l-4.5-1.8L26.7,27
		l-0.4,0.3c-0.9,0.7-1.8,1.2-2.9,1.7l-0.5,0.2l-0.1,0.5l-0.7,4.8v0c0,0,0,0,0,0h-7.2c0,0,0,0,0,0c0,0,0,0,0,0l-0.7-4.8l-0.1-0.5
		L13.7,29c-1-0.4-2-1-2.9-1.7L10.4,27l-0.5,0.2L5.4,29l-3.6-6.3l3.8-3L6,19.5L6,18.9c-0.1-0.6-0.1-1.1-0.1-1.7c0-0.5,0-1.1,0.1-1.6
		L6,15.1l-0.4-0.3l-3.8-3l3.6-6.3l4.5,1.8l0.5,0.2l0.4-0.3c0.9-0.7,1.8-1.2,2.9-1.7l0.5-0.2l0.1-0.5L14.9,0c0,0,0,0,0,0c0,0,0,0,0,0
		h7.2c0,0,0,0,0,0c0,0,0,0,0,0l0.7,4.8l0.1,0.5l0.5,0.2c1,0.4,2,1,2.9,1.7l0.4,0.3l0.5-0.2l4.5-1.8l3.6,6.3l-3.8,3l-0.4,0.3l0.1,0.5
		c0.1,0.6,0.1,1.1,0.1,1.7c0,0.5,0,1.1-0.1,1.6l-0.1,0.5L31.5,19.8z M49.6,41.2l2.2,1.7l-2,3.5l-2.6-1.1l-0.5-0.2l-0.4,0.4
		c-0.5,0.4-1.1,0.7-1.7,1L44,46.7l-0.1,0.5L43.5,50h-4l-0.4-2.8L39,46.7l-0.5-0.2c-0.6-0.2-1.2-0.6-1.7-1l-0.4-0.3l-0.5,0.2
		l-2.6,1.1l-2-3.5l2.2-1.7l0.4-0.3l-0.1-0.5c-0.1-0.7-0.1-1.4,0-2l0.1-0.5l-0.4-0.3l-2.2-1.7l2-3.5l2.6,1.1l0.5,0.2l0.4-0.3
		c0.5-0.4,1.1-0.7,1.8-1l0.5-0.2l0.1-0.5l0.4-2.8h4l0.4,2.8l0.1,0.5l0.5,0.2c0.6,0.2,1.2,0.6,1.7,1l0.4,0.3l0.5-0.2l2.6-1.1l2,3.5
		l-2.2,1.7l-0.5,0.4l0.1,0.6c0.1,0.3,0.1,0.6,0.1,0.9c0,0.3,0,0.6-0.1,1l-0.1,0.5L49.6,41.2z M12.4,17.3c0,3.4,2.8,6.1,6.1,6.1
		c3.4,0,6.1-2.8,6.1-6.1s-2.8-6.1-6.1-6.1C15.2,11.1,12.4,13.9,12.4,17.3z M38.3,42.4c0.8,0.8,2,1.3,3.1,1.3c1.2,0,2.3-0.5,3.1-1.3
		c0.8-0.8,1.3-2,1.3-3.1c0-1.2-0.5-2.3-1.3-3.1c-0.8-0.8-2-1.3-3.1-1.3c-1.2,0-2.3,0.5-3.1,1.3c-0.8,0.8-1.3,2-1.3,3.1
		C37,40.5,37.5,41.6,38.3,42.4z"/>
</g>
</svg>
