<?xml version="1.0" encoding="utf-8"?>
<!-- Generator: Adobe Illustrator 24.3.0, SVG Export Plug-In . SVG Version: 6.00 Build 0)  -->
<svg version="1.1" id="Layer_3" xmlns="http://www.w3.org/2000/svg" xmlns:xlink="http://www.w3.org/1999/xlink" x="0px" y="0px"
	 viewBox="0 0 50 50" style="enable-background:new 0 0 50 50;" xml:space="preserve">
<style type="text/css">
	.st0{fill:url(#SVGID_1_);}
	.st1{fill:url(#SVGID_2_);}
	.st2{fill:url(#SVGID_3_);}
	.st3{fill:url(#SVGID_4_);}
	.st4{fill:url(#SVGID_5_);}
	.st5{fill:url(#SVGID_6_);}
</style>
<g>
	<linearGradient id="SVGID_1_" gradientUnits="userSpaceOnUse" x1="-7.2863" y1="9.8563" x2="33.483" y2="41.7087">
		<stop  offset="0" style="stop-color:#034EA2"/>
		<stop  offset="5.317605e-02" style="stop-color:#164A9B"/>
		<stop  offset="0.251" style="stop-color:#563A83"/>
		<stop  offset="0.4396" style="stop-color:#8C2E70"/>
		<stop  offset="0.6139" style="stop-color:#B62460"/>
		<stop  offset="0.7708" style="stop-color:#D41D55"/>
		<stop  offset="0.9047" style="stop-color:#E6194E"/>
		<stop  offset="1" style="stop-color:#ED174C"/>
	</linearGradient>
	<path class="st0" d="M27.1,27.6L27.1,27.6l-6.6-4.7c1.3-0.7,2.2-2,2.2-3.5v-8.9c0-1.9-1.4-3.6-3.2-4V4.8h4c0.4,0,0.8-0.4,0.8-0.8
		V0.8c0-0.4-0.4-0.8-0.8-0.8H0.8C0.4,0,0,0.4,0,0.8v48.4C0,49.6,0.4,50,0.8,50h25.8c0.4,0,0.8-0.4,0.8-0.8v-21
		C27.4,28,27.3,27.7,27.1,27.6z M21,10.5v8.9c0,1-0.7,1.9-1.6,2.3V8.2C20.3,8.5,21,9.4,21,10.5z M1.6,1.6h21v1.6h-21V1.6z M1.6,4.8
		h16.1v17.7c0,0.3,0.1,0.5,0.3,0.7l6,4.2H1.6V4.8z M25.8,29v1.6H1.6V29H25.8z M25.8,32.3v12.9H1.6V32.3H25.8z M1.6,48.4v-1.6h24.2
		v1.6H1.6z"/>
	<linearGradient id="SVGID_2_" gradientUnits="userSpaceOnUse" x1="26.2168" y1="9.4651" x2="27.8054" y2="10.7062">
		<stop  offset="0" style="stop-color:#034EA2"/>
		<stop  offset="5.317605e-02" style="stop-color:#164A9B"/>
		<stop  offset="0.251" style="stop-color:#563A83"/>
		<stop  offset="0.4396" style="stop-color:#8C2E70"/>
		<stop  offset="0.6139" style="stop-color:#B62460"/>
		<stop  offset="0.7708" style="stop-color:#D41D55"/>
		<stop  offset="0.9047" style="stop-color:#E6194E"/>
		<stop  offset="1" style="stop-color:#ED174C"/>
	</linearGradient>
	<path class="st1" d="M25.2,10.7l2.4-2.4l1.1,1.1l-2.4,2.4L25.2,10.7z"/>
	<linearGradient id="SVGID_3_" gradientUnits="userSpaceOnUse" x1="25.5957" y1="17.8508" x2="28.4265" y2="20.0625">
		<stop  offset="0" style="stop-color:#034EA2"/>
		<stop  offset="5.317605e-02" style="stop-color:#164A9B"/>
		<stop  offset="0.251" style="stop-color:#563A83"/>
		<stop  offset="0.4396" style="stop-color:#8C2E70"/>
		<stop  offset="0.6139" style="stop-color:#B62460"/>
		<stop  offset="0.7708" style="stop-color:#D41D55"/>
		<stop  offset="0.9047" style="stop-color:#E6194E"/>
		<stop  offset="1" style="stop-color:#ED174C"/>
	</linearGradient>
	<path class="st2" d="M25.2,18.3l1.1-1.1l2.4,2.4l-1.1,1.1L25.2,18.3z"/>
	<linearGradient id="SVGID_4_" gradientUnits="userSpaceOnUse" x1="26.833" y1="13.428" x2="29.6186" y2="15.6043">
		<stop  offset="0" style="stop-color:#034EA2"/>
		<stop  offset="5.317605e-02" style="stop-color:#164A9B"/>
		<stop  offset="0.251" style="stop-color:#563A83"/>
		<stop  offset="0.4396" style="stop-color:#8C2E70"/>
		<stop  offset="0.6139" style="stop-color:#B62460"/>
		<stop  offset="0.7708" style="stop-color:#D41D55"/>
		<stop  offset="0.9047" style="stop-color:#E6194E"/>
		<stop  offset="1" style="stop-color:#ED174C"/>
	</linearGradient>
	<path class="st3" d="M26.6,13.7h3.2v1.6h-3.2V13.7z"/>
	<linearGradient id="SVGID_5_" gradientUnits="userSpaceOnUse" x1="38.7832" y1="2.049" x2="50.2574" y2="11.0136">
		<stop  offset="0" style="stop-color:#034EA2"/>
		<stop  offset="5.317605e-02" style="stop-color:#164A9B"/>
		<stop  offset="0.251" style="stop-color:#563A83"/>
		<stop  offset="0.4396" style="stop-color:#8C2E70"/>
		<stop  offset="0.6139" style="stop-color:#B62460"/>
		<stop  offset="0.7708" style="stop-color:#D41D55"/>
		<stop  offset="0.9047" style="stop-color:#E6194E"/>
		<stop  offset="1" style="stop-color:#ED174C"/>
	</linearGradient>
	<path class="st4" d="M50,9.7V2.4c0-0.4-0.4-0.8-0.8-0.8h-9.7c-0.4,0-0.8,0.4-0.8,0.8c0,1.3,0.6,2.5,1.6,3.2v4
		c0,2.7,2.2,4.8,4.8,4.8S50,12.3,50,9.7z M45.2,12.9c-1.8,0-3.2-1.5-3.2-3.2V6.4c0.3,0.1,0.5,0.1,0.8,0.1h1.2l2.2,3.4
		c0,0,0.1,0.1,0.1,0.1c0.5,0.6,1.2,1,1.9,1.2C47.5,12.2,46.4,12.9,45.2,12.9L45.2,12.9z M48.4,9.5c-0.4-0.1-0.7-0.3-1-0.6L45,5.2
		c-0.2-0.2-0.4-0.4-0.7-0.4h-1.6c-1,0-1.9-0.7-2.3-1.6h7.9V9.5z"/>
	<linearGradient id="SVGID_6_" gradientUnits="userSpaceOnUse" x1="31.0732" y1="21.8813" x2="56.2105" y2="41.5207">
		<stop  offset="0" style="stop-color:#034EA2"/>
		<stop  offset="5.317605e-02" style="stop-color:#164A9B"/>
		<stop  offset="0.251" style="stop-color:#563A83"/>
		<stop  offset="0.4396" style="stop-color:#8C2E70"/>
		<stop  offset="0.6139" style="stop-color:#B62460"/>
		<stop  offset="0.7708" style="stop-color:#D41D55"/>
		<stop  offset="0.9047" style="stop-color:#E6194E"/>
		<stop  offset="1" style="stop-color:#ED174C"/>
	</linearGradient>
	<path class="st5" d="M40.4,17.7h-4.9c-1.3,0-2.4,1.1-2.4,2.4c0,1.3,1.1,2.4,2.4,2.4h4.8v22.7c-0.9,0.3-1.6,1.2-1.6,2.3v1.6
		c0,0.4,0.4,0.8,0.8,0.8h3.2h6.5c0.4,0,0.8-0.4,0.8-0.8V15.3c0-0.4-0.4-0.8-0.8-0.8h-4h-0.8C42.4,14.5,40.8,15.9,40.4,17.7
		L40.4,17.7z M45.2,19.4c0.4,0,0.8,0.4,0.8,0.8c0,0.4-0.4,0.8-0.8,0.8h-1.6v-1.6H45.2z M34.7,20.2c0-0.4,0.4-0.8,0.8-0.8h6.5V21
		h-6.5C35,21,34.7,20.6,34.7,20.2z M40.3,47.6c0-0.4,0.4-0.8,0.8-0.8h1c-0.1,0.3-0.2,0.5-0.2,0.8v0.8h-1.6V47.6z M48.4,48.4h-4.8
		v-0.8c0-0.4,0.4-0.8,0.8-0.8h4V48.4z M45.2,45.2V31.5h-1.6v13.7h-1.6V29.8h6.5v15.3H45.2z M48.4,16.1v12.1h-6.5v-5.6h3.2
		c1.3,0,2.4-1.1,2.4-2.4c0-1.3-1.1-2.4-2.4-2.4h-3.1c0.3-0.9,1.2-1.6,2.3-1.6H48.4z"/>
</g>
</svg>
