<?xml version="1.0" encoding="utf-8"?>
<!-- Generator: Adobe Illustrator 24.3.0, SVG Export Plug-In . SVG Version: 6.00 Build 0)  -->
<svg version="1.1" id="Layer_1" xmlns="http://www.w3.org/2000/svg" xmlns:xlink="http://www.w3.org/1999/xlink" x="0px" y="0px"
	 viewBox="0 0 50 50" style="enable-background:new 0 0 50 50;" xml:space="preserve">
<style type="text/css">
	.st0{fill:url(#SVGID_1_);}
	.st1{fill:url(#SVGID_2_);}
	.st2{fill:url(#SVGID_3_);}
	.st3{fill:url(#SVGID_4_);}
	.st4{fill:url(#SVGID_5_);}
</style>
<g>
	<linearGradient id="SVGID_1_" gradientUnits="userSpaceOnUse" x1="28.1341" y1="15.2275" x2="29.6714" y2="16.4285">
		<stop  offset="0" style="stop-color:#034EA2"/>
		<stop  offset="5.317605e-02" style="stop-color:#164A9B"/>
		<stop  offset="0.251" style="stop-color:#563A83"/>
		<stop  offset="0.4396" style="stop-color:#8C2E70"/>
		<stop  offset="0.6139" style="stop-color:#B62460"/>
		<stop  offset="0.7708" style="stop-color:#D41D55"/>
		<stop  offset="0.9047" style="stop-color:#E6194E"/>
		<stop  offset="1" style="stop-color:#ED174C"/>
	</linearGradient>
	<path class="st0" d="M28.9,14.9c-0.5,0-1,0.4-1,1s0.4,1,1,1c0.5,0,1-0.4,1-1C29.9,15.3,29.4,14.9,28.9,14.9z"/>
	<linearGradient id="SVGID_2_" gradientUnits="userSpaceOnUse" x1="21.5288" y1="32.6354" x2="23.0634" y2="33.8343">
		<stop  offset="0" style="stop-color:#034EA2"/>
		<stop  offset="5.317605e-02" style="stop-color:#164A9B"/>
		<stop  offset="0.251" style="stop-color:#563A83"/>
		<stop  offset="0.4396" style="stop-color:#8C2E70"/>
		<stop  offset="0.6139" style="stop-color:#B62460"/>
		<stop  offset="0.7708" style="stop-color:#D41D55"/>
		<stop  offset="0.9047" style="stop-color:#E6194E"/>
		<stop  offset="1" style="stop-color:#ED174C"/>
	</linearGradient>
	<path class="st1" d="M23,33.9c0.4-0.4,0.4-1,0-1.4c-0.4-0.4-1-0.4-1.4,0c-0.4,0.4-0.4,1,0,1.4C22,34.3,22.6,34.3,23,33.9z"/>
	<linearGradient id="SVGID_3_" gradientUnits="userSpaceOnUse" x1="12.3005" y1="21.9085" x2="37.6851" y2="41.7411">
		<stop  offset="0" style="stop-color:#034EA2"/>
		<stop  offset="5.317605e-02" style="stop-color:#164A9B"/>
		<stop  offset="0.251" style="stop-color:#563A83"/>
		<stop  offset="0.4396" style="stop-color:#8C2E70"/>
		<stop  offset="0.6139" style="stop-color:#B62460"/>
		<stop  offset="0.7708" style="stop-color:#D41D55"/>
		<stop  offset="0.9047" style="stop-color:#E6194E"/>
		<stop  offset="1" style="stop-color:#ED174C"/>
	</linearGradient>
	<path class="st2" d="M11.3,49.7c0.4,0.4,1,0.4,1.4,0l4.7-4.7c0.8-0.8,1-2,0.7-3l1-1c0.5-0.5,1.3-0.8,2-0.8h13
		c2.3,0,4.5-0.9,6.1-2.5c0.1-0.1-0.5,0.6,8.9-10.6c1.4-1.6,1.2-4.1-0.5-5.5c-1.6-1.4-4.1-1.2-5.5,0.4L37.4,28
		c-0.7-0.9-1.8-1.5-3-1.5H23.4c-1.6-0.6-3.2-1-4.9-1c-4.7,0-8.8,2.2-11,6.2c-0.9-0.2-1.9,0.1-2.6,0.8l-4.6,4.7c-0.4,0.4-0.4,1,0,1.4
		L11.3,49.7z M18.6,27.5c1.5,0,2.9,0.3,4.3,0.9c0.1,0.1,0.3,0.1,0.4,0.1h11.1c1.1,0,2,0.9,2,2c0,1.1-0.9,2-2,2h-8c-0.5,0-1,0.4-1,1
		c0,0.5,0.4,1,1,1h8c2.2,0,3.9-1.7,3.9-3.9c0-0.2,0-0.3,0-0.5c5.6-5.7,6.4-6.5,6.4-6.6c0.7-0.8,1.9-0.9,2.8-0.2
		c0.8,0.7,0.9,1.9,0.2,2.8l-8.8,10.5c-1.3,1.2-3,1.9-4.7,1.9h-13c-1.3,0-2.5,0.5-3.4,1.4l-0.8,0.8l-7.6-7.6
		C11,29.5,14.4,27.5,18.6,27.5z M6.3,34c0.3-0.3,0.8-0.4,1.2-0.1c0.1,0.1,8.5,8.5,8.6,8.5c0.3,0.4,0.2,0.9-0.1,1.3l-4,4L2.4,38
		L6.3,34z"/>
	<linearGradient id="SVGID_4_" gradientUnits="userSpaceOnUse" x1="13.7727" y1="5.565098e-02" x2="40.1321" y2="20.6498">
		<stop  offset="0" style="stop-color:#034EA2"/>
		<stop  offset="5.317605e-02" style="stop-color:#164A9B"/>
		<stop  offset="0.251" style="stop-color:#563A83"/>
		<stop  offset="0.4396" style="stop-color:#8C2E70"/>
		<stop  offset="0.6139" style="stop-color:#B62460"/>
		<stop  offset="0.7708" style="stop-color:#D41D55"/>
		<stop  offset="0.9047" style="stop-color:#E6194E"/>
		<stop  offset="1" style="stop-color:#ED174C"/>
	</linearGradient>
	<path class="st3" d="M15.2,20.7h23.4c1.6,0,2.9-1.3,2.9-2.9c0-2.5,0-13.1,0-14.8c0-1.6-1.3-2.9-2.9-2.9H15.2
		c-1.6,0-2.9,1.3-2.9,2.9v14.8C12.3,19.4,13.6,20.7,15.2,20.7z M39.6,7.8H14.3v-2h25.4V7.8z M38.7,18.7H15.2c-0.5,0-1-0.4-1-1v-8
		h25.4v8C39.6,18.3,39.2,18.7,38.7,18.7z M15.2,2h23.4c0.5,0,1,0.4,1,1v1H14.3v-1C14.3,2.4,14.7,2,15.2,2z"/>
	<linearGradient id="SVGID_5_" gradientUnits="userSpaceOnUse" x1="32.7803" y1="14.28" x2="36.7431" y2="17.376">
		<stop  offset="5.025126e-03" style="stop-color:#034EA2"/>
		<stop  offset="5.793395e-02" style="stop-color:#164A9B"/>
		<stop  offset="0.2547" style="stop-color:#563A83"/>
		<stop  offset="0.4424" style="stop-color:#8C2E70"/>
		<stop  offset="0.6158" style="stop-color:#B62460"/>
		<stop  offset="0.772" style="stop-color:#D41D55"/>
		<stop  offset="0.9052" style="stop-color:#E6194E"/>
		<stop  offset="1" style="stop-color:#ED174C"/>
	</linearGradient>
	<path class="st4" d="M36.7,14.9h-3.9c-0.5,0-1,0.4-1,1s0.4,1,1,1h3.9c0.5,0,1-0.4,1-1C37.7,15.3,37.3,14.9,36.7,14.9z"/>
</g>
</svg>
