<?xml version="1.0" encoding="utf-8"?>
<!-- Generator: Adobe Illustrator 24.3.0, SVG Export Plug-In . SVG Version: 6.00 Build 0)  -->
<svg version="1.1" id="Layer_1" xmlns="http://www.w3.org/2000/svg" xmlns:xlink="http://www.w3.org/1999/xlink" x="0px" y="0px"
	 viewBox="0 0 50 50" style="enable-background:new 0 0 50 50;" xml:space="preserve">
<style type="text/css">
	.st0{fill:url(#SVGID_1_);}
	.st1{fill:url(#SVGID_2_);}
	.st2{fill:url(#SVGID_3_);}
	.st3{fill:url(#SVGID_4_);}
	.st4{fill:url(#SVGID_5_);}
	.st5{fill:url(#SVGID_6_);}
	.st6{fill:url(#SVGID_7_);}
</style>
<g>
	<g>
		<g>
			<linearGradient id="SVGID_1_" gradientUnits="userSpaceOnUse" x1="3.2039" y1="13.0763" x2="31.6945" y2="35.3356">
				<stop  offset="0" style="stop-color:#034EA2"/>
				<stop  offset="5.317605e-02" style="stop-color:#164A9B"/>
				<stop  offset="0.251" style="stop-color:#563A83"/>
				<stop  offset="0.4396" style="stop-color:#8C2E70"/>
				<stop  offset="0.6139" style="stop-color:#B62460"/>
				<stop  offset="0.7708" style="stop-color:#D41D55"/>
				<stop  offset="0.9047" style="stop-color:#E6194E"/>
				<stop  offset="1" style="stop-color:#ED174C"/>
			</linearGradient>
			<path class="st0" d="M42.5,16.7C42.5,16.7,42.5,16.7,42.5,16.7H0.7C0.3,16.7,0,17,0,17.4c0,0,0,0,0,0v20c0,0.4,0.3,0.7,0.7,0.7
				c0,0,0,0,0,0h28.4c0.4,0,0.7-0.3,0.7-0.7c0-0.4-0.3-0.7-0.7-0.7H1.4V18.1h40.3v1.8c0,0.4,0.3,0.7,0.7,0.7c0,0,0,0,0,0
				c0.4,0,0.7-0.3,0.7-0.7c0,0,0,0,0,0v-2.5C43.2,17,42.9,16.7,42.5,16.7z"/>
		</g>
	</g>
	<g>
		<g>
			<linearGradient id="SVGID_2_" gradientUnits="userSpaceOnUse" x1="5.8614" y1="3.093" x2="31.3847" y2="23.0341">
				<stop  offset="0" style="stop-color:#034EA2"/>
				<stop  offset="5.317605e-02" style="stop-color:#164A9B"/>
				<stop  offset="0.251" style="stop-color:#563A83"/>
				<stop  offset="0.4396" style="stop-color:#8C2E70"/>
				<stop  offset="0.6139" style="stop-color:#B62460"/>
				<stop  offset="0.7708" style="stop-color:#D41D55"/>
				<stop  offset="0.9047" style="stop-color:#E6194E"/>
				<stop  offset="1" style="stop-color:#ED174C"/>
			</linearGradient>
			<path class="st1" d="M37.6,13.4L4.2,5.9C4,5.8,3.8,5.9,3.7,6C3.5,6.1,3.4,6.2,3.4,6.4l-1.7,7.5c-0.1,0.4,0.2,0.8,0.5,0.9
				c0.4,0.1,0.8-0.2,0.9-0.5l1.5-6.8l32.7,7.4c0.1,0,0.1,0,0.2,0c0.4,0,0.7-0.3,0.7-0.7C38.2,13.7,38,13.5,37.6,13.4z"/>
		</g>
	</g>
	<g>
		<g>
			<linearGradient id="SVGID_3_" gradientUnits="userSpaceOnUse" x1="13.3188" y1="0.2916" x2="30.9518" y2="14.068">
				<stop  offset="0" style="stop-color:#034EA2"/>
				<stop  offset="5.317605e-02" style="stop-color:#164A9B"/>
				<stop  offset="0.251" style="stop-color:#563A83"/>
				<stop  offset="0.4396" style="stop-color:#8C2E70"/>
				<stop  offset="0.6139" style="stop-color:#B62460"/>
				<stop  offset="0.7708" style="stop-color:#D41D55"/>
				<stop  offset="0.9047" style="stop-color:#E6194E"/>
				<stop  offset="1" style="stop-color:#ED174C"/>
			</linearGradient>
			<path class="st2" d="M33.6,9.2l-20-8.4c-0.3-0.1-0.7,0-0.9,0.3l-1.7,3.3c-0.2,0.3-0.1,0.8,0.3,1c0.3,0.2,0.8,0.1,1-0.3
				c0,0,0,0,0,0v0l1.4-2.7L33,10.6c0.4,0.2,0.8,0,0.9-0.4C34.1,9.8,33.9,9.4,33.6,9.2z"/>
		</g>
	</g>
	<g>
		<g>
			<linearGradient id="SVGID_4_" gradientUnits="userSpaceOnUse" x1="28.1386" y1="18.7165" x2="33.3838" y2="22.8145">
				<stop  offset="0" style="stop-color:#034EA2"/>
				<stop  offset="5.317605e-02" style="stop-color:#164A9B"/>
				<stop  offset="0.251" style="stop-color:#563A83"/>
				<stop  offset="0.4396" style="stop-color:#8C2E70"/>
				<stop  offset="0.6139" style="stop-color:#B62460"/>
				<stop  offset="0.7708" style="stop-color:#D41D55"/>
				<stop  offset="0.9047" style="stop-color:#E6194E"/>
				<stop  offset="1" style="stop-color:#ED174C"/>
			</linearGradient>
			<path class="st3" d="M34.1,20h-6.6c-0.4,0-0.7,0.3-0.7,0.7s0.3,0.7,0.7,0.7h6.6c0.4,0,0.7-0.3,0.7-0.7S34.5,20,34.1,20z"/>
		</g>
	</g>
	<g>
		<g>
			<linearGradient id="SVGID_5_" gradientUnits="userSpaceOnUse" x1="14.9718" y1="22.921" x2="26.5574" y2="31.9727">
				<stop  offset="0" style="stop-color:#034EA2"/>
				<stop  offset="5.317605e-02" style="stop-color:#164A9B"/>
				<stop  offset="0.251" style="stop-color:#563A83"/>
				<stop  offset="0.4396" style="stop-color:#8C2E70"/>
				<stop  offset="0.6139" style="stop-color:#B62460"/>
				<stop  offset="0.7708" style="stop-color:#D41D55"/>
				<stop  offset="0.9047" style="stop-color:#E6194E"/>
				<stop  offset="1" style="stop-color:#ED174C"/>
			</linearGradient>
			<path class="st4" d="M20.8,20.1c-4.1,0-7.4,3.3-7.4,7.4c0,4.1,3.3,7.3,7.4,7.4c4.1,0,7.4-3.3,7.4-7.4S24.8,20.1,20.8,20.1z
				 M20.8,33.5c-3.3,0-6-2.7-6-6c0-3.3,2.7-6,6-6c3.3,0,6,2.7,6,6C26.8,30.8,24.1,33.5,20.8,33.5z"/>
		</g>
	</g>
	<g>
		<g>
			<linearGradient id="SVGID_6_" gradientUnits="userSpaceOnUse" x1="29.9675" y1="27.3291" x2="51.6553" y2="44.2735">
				<stop  offset="0" style="stop-color:#034EA2"/>
				<stop  offset="5.317605e-02" style="stop-color:#164A9B"/>
				<stop  offset="0.251" style="stop-color:#563A83"/>
				<stop  offset="0.4396" style="stop-color:#8C2E70"/>
				<stop  offset="0.6139" style="stop-color:#B62460"/>
				<stop  offset="0.7708" style="stop-color:#D41D55"/>
				<stop  offset="0.9047" style="stop-color:#E6194E"/>
				<stop  offset="1" style="stop-color:#ED174C"/>
			</linearGradient>
			<path class="st5" d="M40.8,22.4c-4.4,0-9.2,1-9.2,3.3v20c0,2.3,4.8,3.3,9.2,3.3s9.2-1,9.2-3.3v-20C50,23.5,45.2,22.4,40.8,22.4z
				 M48.3,45.8c-0.1,0.5-2.6,1.7-7.5,1.7s-7.4-1.2-7.5-1.7v-1.3c1.8,0.9,4.7,1.3,7.5,1.3c2.8,0,5.7-0.4,7.5-1.3V45.8z M48.3,42.5
				c-0.1,0.5-2.6,1.7-7.5,1.7s-7.4-1.2-7.5-1.7v-1.3c1.8,0.9,4.7,1.3,7.5,1.3c2.8,0,5.7-0.4,7.5-1.3V42.5z M48.3,39.1
				c-0.1,0.5-2.6,1.7-7.5,1.7s-7.4-1.2-7.5-1.7v-1.3c1.8,0.9,4.7,1.3,7.5,1.3c2.8,0,5.7-0.4,7.5-1.3V39.1z M48.3,35.8
				c-0.1,0.5-2.6,1.7-7.5,1.7s-7.4-1.2-7.5-1.7v-1.3c1.8,0.9,4.7,1.3,7.5,1.3c2.8,0,5.7-0.4,7.5-1.3V35.8z M48.3,32.4
				c-0.1,0.5-2.6,1.7-7.5,1.7s-7.4-1.2-7.5-1.7v-1.3c1.8,0.9,4.7,1.3,7.5,1.3c2.8,0,5.7-0.4,7.5-1.3V32.4z M48.3,29.1
				c-0.1,0.5-2.6,1.7-7.5,1.7s-7.4-1.2-7.5-1.7v-1.3c1.8,0.9,4.7,1.3,7.5,1.3c2.8,0,5.7-0.4,7.5-1.3V29.1z M40.8,27.4
				c-4.9,0-7.4-1.2-7.5-1.7v0c0.1-0.5,2.6-1.7,7.5-1.7c4.8,0,7.4,1.2,7.5,1.7C48.2,26.3,45.7,27.4,40.8,27.4z"/>
		</g>
	</g>
	<g>
		<g>
			<linearGradient id="SVGID_7_" gradientUnits="userSpaceOnUse" x1="4.563" y1="22.6017" x2="16.6303" y2="32.0297">
				<stop  offset="0" style="stop-color:#034EA2"/>
				<stop  offset="5.317605e-02" style="stop-color:#164A9B"/>
				<stop  offset="0.251" style="stop-color:#563A83"/>
				<stop  offset="0.4396" style="stop-color:#8C2E70"/>
				<stop  offset="0.6139" style="stop-color:#B62460"/>
				<stop  offset="0.7708" style="stop-color:#D41D55"/>
				<stop  offset="0.9047" style="stop-color:#E6194E"/>
				<stop  offset="1" style="stop-color:#ED174C"/>
			</linearGradient>
			<path class="st6" d="M14.1,33.4H7.8l-3-3.3v-5.4l3.3-3.2h6c0.4,0,0.7-0.3,0.7-0.7S14.5,20,14.1,20H7.8c-0.2,0-0.4,0.1-0.5,0.2
				l-3.7,3.6c-0.1,0.2-0.2,0.4-0.2,0.6v5.9c0,0.2,0.1,0.4,0.2,0.5l3.4,3.7c0.1,0.1,0.3,0.2,0.5,0.2h6.6c0.4,0,0.7-0.3,0.7-0.7
				C14.8,33.7,14.5,33.4,14.1,33.4z"/>
		</g>
	</g>
</g>
</svg>
