<svg width="200" height="200" viewBox="0 0 200 200" fill="none" xmlns="http://www.w3.org/2000/svg">
<path d="M100.5 24C142.156 24 176 57.8444 176 99.5C176 141.156 142.156 175 100.5 175C58.8444 175 25 141.156 25 99.5C25 57.8444 58.8444 24 100.5 24ZM103.927 31.2904V63.4646H128.214C126.766 58.5476 125.032 54.0245 123.063 50.0546C117.773 39.3692 111.036 32.8973 103.927 31.2904ZM97.0624 31.2904C89.9636 32.8868 83.2269 39.3575 77.9162 50.0535C75.9473 54.0232 74.2125 58.5465 72.7652 63.4635H97.0521V31.2893L97.0624 31.2904ZM120.338 33.8127C123.691 37.4418 126.66 41.9013 129.182 46.999C131.62 51.9053 133.684 57.4501 135.345 63.4634H158.94C150.234 49.3617 136.547 38.6874 120.338 33.8127ZM80.6634 33.8127C64.4439 38.6872 50.7669 49.3617 42.062 63.464H65.6571C67.3174 57.4615 69.3927 51.9059 71.8192 46.9995C74.3522 41.9016 77.3214 37.4418 80.6634 33.8127ZM162.645 70.3271H137.017C138.71 78.3092 139.71 86.9831 139.912 96.0613H169.032C168.585 86.8766 166.349 78.2027 162.645 70.3271ZM129.994 70.3271H103.93V96.0613H133.05C132.837 86.8978 131.761 78.1921 129.994 70.3271ZM97.0761 70.3271H71.0119C69.2452 78.1921 68.1702 86.8978 67.9574 96.0613H97.0774L97.0761 70.3271ZM63.9973 70.3271H38.3696C34.6659 78.2027 32.4416 86.8872 31.9838 96.0613H61.1038C61.306 86.9831 62.3051 78.2986 63.9973 70.3271ZM169.042 102.926H139.922C139.72 112.015 138.72 120.689 137.027 128.661H162.655C166.348 120.796 168.585 112.09 169.042 102.926ZM133.059 102.926H103.939V128.661H130.003C131.77 120.785 132.846 112.1 133.059 102.926ZM97.0761 102.926H67.9561C68.1689 112.1 69.2439 120.785 71.0106 128.661H97.0747L97.0761 102.926ZM61.0929 102.926H31.9729C32.4199 112.09 34.6656 120.796 38.3587 128.661H63.9864C62.2942 120.678 61.2951 112.015 61.0929 102.926ZM158.953 135.526H135.358C133.698 141.528 131.623 147.031 129.196 151.937C126.663 157.035 123.694 161.59 120.352 165.229C136.571 160.355 150.248 149.626 158.953 135.526ZM128.229 135.526H103.942V167.752C111.04 166.155 117.777 159.631 123.088 148.935C125.057 144.955 126.781 140.464 128.239 135.525L128.229 135.526ZM97.0761 135.526H72.7892C74.2366 140.453 75.9608 144.955 77.9402 148.936C83.2403 159.632 89.9773 166.156 97.0864 167.752V135.526L97.0761 135.526ZM65.6593 135.526H42.0641C50.7699 149.627 64.4567 160.355 80.6656 165.229C77.313 161.589 74.3438 157.034 71.8214 151.936C69.3842 147.029 67.3196 141.528 65.6593 135.526Z" fill="black"/>
</svg>
