<?xml version="1.0" encoding="UTF-8"?>
<svg width="100pt" height="100pt" version="1.1" viewBox="0 0 100 100" xmlns="http://www.w3.org/2000/svg">
 <path d="m50.012 22.289c-15.312 0-27.719 12.43-27.719 27.711 0 15.305 12.41 27.711 27.719 27.711 15.289 0 27.699-12.402 27.699-27.711 0-15.281-12.41-27.711-27.699-27.711zm2.8438 2.2695c8.9414 0.99219 16.492 6.5898 20.23 14.363h-13.598c-1.1875-5.75-3.3438-10.883-6.6328-14.363zm-5.75 0.023437c-3.2812 3.4766-5.4453 8.5977-6.6328 14.34h-13.551c3.7266-7.7578 11.25-13.332 20.184-14.34zm2.8633 0.19922c3.4727 2.8711 5.957 8.0703 7.3164 14.141h-14.609c1.3555-6.0664 3.8281-11.266 7.293-14.141zm-23.953 16.277h14.035c-0.46875 2.9219-0.68359 5.9531-0.68359 8.9883 0 3.0078 0.21875 6.0273 0.68359 8.9219h-14.035c-1.0391-2.7891-1.6094-5.8086-1.6094-8.9648 0-3.1523 0.57031-6.1562 1.6094-8.9414zm16.238 0h15.445c0.50781 2.8984 0.79297 5.9336 0.79297 8.9883 0 3.0312-0.26953 6.0469-0.76953 8.9219h-15.492c-0.5-2.8711-0.74609-5.8906-0.75-8.9219 0-3.0547 0.26562-6.0898 0.76953-8.9883zm17.648 0h14.082c1.043 2.7891 1.6094 5.793 1.6094 8.9414 0 3.1562-0.56641 6.1758-1.6094 8.9648h-14.082c0.46094-2.8906 0.70312-5.9141 0.70703-8.9219 0-3.0352-0.23438-6.0664-0.70703-8.9883zm-33.008 20.023h13.551c1.1797 5.7461 3.3398 10.875 6.6094 14.34-8.9336-1.0117-16.445-6.5742-20.164-14.34zm15.777 0h14.609c-1.3555 6.0938-3.8359 11.316-7.3164 14.164-3.4648-2.8516-5.9375-8.0742-7.293-14.164zm16.836 0h13.574c-3.7344 7.7695-11.273 13.363-20.207 14.363 3.2891-3.4648 5.4492-8.6016 6.6328-14.363z" fill="#00095b" fill-rule="evenodd"/>
</svg>
