<svg width="200" height="200" viewBox="0 0 200 200" fill="none" xmlns="http://www.w3.org/2000/svg">
<path fill-rule="evenodd" clip-rule="evenodd" d="M100.471 30C118.468 30 133.077 44.5695 133.077 62.5147C133.077 80.4598 118.467 95.0293 100.471 95.0293C82.4761 95.0293 67.8659 80.4598 67.8659 62.5147C67.8659 44.5695 82.4761 30 100.471 30ZM100.471 40.0048C88.0121 40.0048 77.8986 50.0908 77.8986 62.5147C77.8986 74.9385 88.0129 85.0246 100.471 85.0246C112.93 85.0246 123.044 74.9385 123.044 62.5147C123.044 50.0908 112.93 40.0048 100.471 40.0048ZM122.869 105.036C135.579 105.036 146.59 113.84 149.343 126.22L153.638 145.479C155.306 152.951 151.073 160.474 143.806 162.943C143.793 162.949 143.774 162.949 143.756 162.962C114.911 172.435 86.0862 172.285 57.2675 162.874C57.2487 162.868 57.2362 162.868 57.2236 162.856C49.9563 160.423 45.7048 152.907 47.354 145.491C48.5141 140.044 50.1256 132.816 51.599 126.219C54.3517 113.838 65.3626 105.035 78.0725 105.035L122.869 105.036ZM122.869 115.04H78.0736C70.0662 115.04 63.1249 120.593 61.3872 128.39C59.9262 134.95 58.3274 142.147 57.1735 147.568C57.1735 147.58 57.1672 147.599 57.161 147.618C56.6092 150.081 58.0138 152.564 60.4153 153.377C87.1279 162.093 113.845 162.243 140.582 153.47C142.996 152.639 144.394 150.138 143.843 147.649L139.554 128.39C137.817 120.593 130.875 115.04 122.867 115.04L122.869 115.04Z" fill="black"/>
</svg>
