<?xml version="1.0" encoding="utf-8"?>
<!-- Generator: Adobe Illustrator 24.3.0, SVG Export Plug-In . SVG Version: 6.00 Build 0)  -->
<svg version="1.1" id="Capa_1" xmlns="http://www.w3.org/2000/svg" xmlns:xlink="http://www.w3.org/1999/xlink" x="0px" y="0px"
	 viewBox="0 0 50 50" style="enable-background:new 0 0 50 50;" xml:space="preserve">
<style type="text/css">
	.st0{fill:url(#SVGID_1_);}
	.st1{fill:url(#SVGID_2_);}
	.st2{fill:url(#SVGID_3_);}
	.st3{fill:url(#SVGID_4_);}
</style>
<g>
	<g>
		<g>
			<linearGradient id="SVGID_1_" gradientUnits="userSpaceOnUse" x1="15.1363" y1="37.8587" x2="16.6678" y2="39.0552">
				<stop  offset="0" style="stop-color:#034EA2"/>
				<stop  offset="5.317605e-02" style="stop-color:#164A9B"/>
				<stop  offset="0.251" style="stop-color:#563A83"/>
				<stop  offset="0.4396" style="stop-color:#8C2E70"/>
				<stop  offset="0.6139" style="stop-color:#B62460"/>
				<stop  offset="0.7708" style="stop-color:#D41D55"/>
				<stop  offset="0.9047" style="stop-color:#E6194E"/>
				<stop  offset="1" style="stop-color:#ED174C"/>
			</linearGradient>
			<path class="st0" d="M16.9,38.3c0-0.1,0-0.1-0.1-0.2s-0.1-0.1-0.1-0.2c0,0-0.1-0.1-0.1-0.1c0,0-0.1-0.1-0.1-0.1
				c0,0-0.1-0.1-0.2-0.1c-0.1,0-0.1,0-0.2-0.1c-0.1,0-0.3,0-0.4,0c-0.1,0-0.1,0-0.2,0.1c-0.1,0-0.1,0.1-0.2,0.1
				c-0.1,0-0.1,0.1-0.1,0.1c0,0-0.1,0.1-0.1,0.1c0,0-0.1,0.1-0.1,0.2c0,0.1,0,0.1-0.1,0.2c0,0.1,0,0.1,0,0.2c0,0.1,0,0.1,0,0.2
				c0,0.1,0,0.1,0.1,0.2c0,0.1,0.1,0.1,0.1,0.2c0,0,0.1,0.1,0.1,0.1c0,0,0.1,0.1,0.1,0.1c0,0,0.1,0.1,0.2,0.1c0.1,0,0.1,0,0.2,0.1
				c0.1,0,0.1,0,0.2,0s0.1,0,0.2,0c0.1,0,0.1,0,0.2-0.1c0.1,0,0.1-0.1,0.2-0.1c0.1,0,0.1-0.1,0.1-0.1c0,0,0.1-0.1,0.1-0.1
				c0,0,0.1-0.1,0.1-0.2c0-0.1,0-0.1,0.1-0.2c0-0.1,0-0.1,0-0.2S16.9,38.3,16.9,38.3z"/>
		</g>
	</g>
	<g>
		<g>
			<linearGradient id="SVGID_2_" gradientUnits="userSpaceOnUse" x1="4.5269" y1="28.7732" x2="35.864" y2="53.2564">
				<stop  offset="0" style="stop-color:#034EA2"/>
				<stop  offset="5.317605e-02" style="stop-color:#164A9B"/>
				<stop  offset="0.251" style="stop-color:#563A83"/>
				<stop  offset="0.4396" style="stop-color:#8C2E70"/>
				<stop  offset="0.6139" style="stop-color:#B62460"/>
				<stop  offset="0.7708" style="stop-color:#D41D55"/>
				<stop  offset="0.9047" style="stop-color:#E6194E"/>
				<stop  offset="1" style="stop-color:#ED174C"/>
			</linearGradient>
			<path class="st1" d="M44.9,38.6C44.9,38.6,44.9,38.5,44.9,38.6c-0.9-2.1-3-2.9-5.5-2.1l-6.8,1.9c-0.4-1.2-1.4-2.2-2.8-2.7
				c0,0,0,0,0,0l-7.5-2.5c-0.6-0.8-2.6-2.9-6.2-2.9c-2.5,0-4.8,1.7-6.1,3.7H1c-0.5,0-1,0.4-1,1v12.3c0,0.5,0.4,1,1,1h5.8
				c0.5,0,1-0.4,1-1v-0.8h2.7c0.5,0,1-0.4,1-1v-0.3c1.6,0.1,2.1,0.4,3.6,1.3c1.1,0.6,2.8,1.6,5.9,3c0,0,0,0,0,0
				c0.6,0.2,1.7,0.6,3.1,0.6c1,0,2.1-0.2,3.2-0.7l15-5.4c0,0,0,0,0.1,0C43.9,43.2,46,41.4,44.9,38.6z M5.8,46.2H2V35.9h3.9V46.2z
				 M9.5,44.4H7.8v-8.5h1.7L9.5,44.4L9.5,44.4z M41.6,42.1l-15,5.4c0,0,0,0,0,0c0,0,0,0,0,0c-2.1,1-4.1,0.4-4.9,0.1
				c-2.9-1.3-4.5-2.2-5.7-2.9c-1.6-0.9-2.4-1.4-4.5-1.5v-7.9c0.9-1.5,2.7-3.1,4.7-3.1c3.3,0,4.7,2.2,4.8,2.2
				c0.1,0.2,0.3,0.3,0.5,0.4l7.8,2.6c1.2,0.5,1.9,1.5,1.6,2.6c-0.1,0.5-0.5,0.9-0.9,1.1c-0.4,0.2-0.9,0.3-1.4,0.2l-8.7-2.8
				c-0.5-0.2-1.1,0.1-1.2,0.6c-0.2,0.5,0.1,1.1,0.6,1.2l8.8,2.8c0,0,0,0,0,0c0.4,0.1,0.7,0.1,1.1,0.1c0.6,0,1.3-0.2,1.9-0.5
				c0.9-0.5,1.6-1.3,1.8-2.3c0-0.1,0-0.2,0.1-0.2l7.3-2c1.1-0.4,2.5-0.5,3.1,0.9C43.7,41,42.1,41.9,41.6,42.1z"/>
		</g>
	</g>
	<g>
		<g>
			<linearGradient id="SVGID_3_" gradientUnits="userSpaceOnUse" x1="33.3504" y1="12.4279" x2="34.8845" y2="13.6265">
				<stop  offset="0" style="stop-color:#034EA2"/>
				<stop  offset="5.317605e-02" style="stop-color:#164A9B"/>
				<stop  offset="0.251" style="stop-color:#563A83"/>
				<stop  offset="0.4396" style="stop-color:#8C2E70"/>
				<stop  offset="0.6139" style="stop-color:#B62460"/>
				<stop  offset="0.7708" style="stop-color:#D41D55"/>
				<stop  offset="0.9047" style="stop-color:#E6194E"/>
				<stop  offset="1" style="stop-color:#ED174C"/>
			</linearGradient>
			<path class="st2" d="M35.1,12.8c0-0.1,0-0.1-0.1-0.2c0-0.1,0-0.1-0.1-0.2c0-0.1-0.1-0.1-0.1-0.1c0,0-0.1-0.1-0.1-0.1
				c0,0-0.1-0.1-0.2-0.1c-0.1,0-0.1,0-0.2-0.1c-0.1,0-0.3,0-0.4,0c-0.1,0-0.1,0-0.2,0.1c-0.1,0-0.1,0.1-0.2,0.1c0,0-0.1,0.1-0.1,0.1
				c0,0-0.1,0.1-0.1,0.1c0,0-0.1,0.1-0.1,0.2c0,0.1,0,0.1-0.1,0.2c0,0.1,0,0.1,0,0.2s0,0.1,0,0.2c0,0.1,0,0.1,0.1,0.2
				c0,0.1,0.1,0.1,0.1,0.2c0,0.1,0.1,0.1,0.1,0.1c0,0,0.1,0.1,0.1,0.1c0,0,0.1,0.1,0.2,0.1c0.1,0,0.1,0,0.2,0.1s0.1,0,0.2,0
				c0.1,0,0.1,0,0.2,0c0.1,0,0.1,0,0.2-0.1c0.1,0,0.1-0.1,0.2-0.1c0,0,0.1-0.1,0.1-0.1c0,0,0.1-0.1,0.1-0.1c0,0,0.1-0.1,0.1-0.2
				c0-0.1,0-0.1,0.1-0.2c0-0.1,0-0.1,0-0.2S35.1,12.9,35.1,12.8z"/>
		</g>
	</g>
	<g>
		<g>
			<linearGradient id="SVGID_4_" gradientUnits="userSpaceOnUse" x1="12.5223" y1="-0.787" x2="44.3834" y2="24.1057">
				<stop  offset="0" style="stop-color:#034EA2"/>
				<stop  offset="5.317605e-02" style="stop-color:#164A9B"/>
				<stop  offset="0.251" style="stop-color:#563A83"/>
				<stop  offset="0.4396" style="stop-color:#8C2E70"/>
				<stop  offset="0.6139" style="stop-color:#B62460"/>
				<stop  offset="0.7708" style="stop-color:#D41D55"/>
				<stop  offset="0.9047" style="stop-color:#E6194E"/>
				<stop  offset="1" style="stop-color:#ED174C"/>
			</linearGradient>
			<path class="st3" d="M49,3.3h-5.8c-0.5,0-1,0.4-1,1v0.8h-2.7c-0.5,0-1,0.4-1,1v0.3c-1.6-0.1-2.1-0.4-3.6-1.3
				c-1.1-0.6-2.8-1.6-5.9-3c0,0,0,0,0,0c-1-0.4-3.6-1.2-6.4,0.1l-3.9,1.4l-3.3-3.3c-0.4-0.4-1-0.4-1.4,0L3.2,11.2
				c-0.4,0.4-0.4,1,0,1.4l18.6,18.6c0.3,0.3,1,0.4,1.4,0l9.9-9.9c0.3,0,0.5,0,0.8,0c2.5,0,4.8-1.7,6.1-3.7h9c0.5,0,1-0.4,1-1V4.3
				C50,3.7,49.6,3.3,49,3.3z M14.8,2.4L17,4.6c-0.7,0.4-1.4,0.6-2.2,0.6c-0.8,0-1.6-0.2-2.2-0.6L14.8,2.4z M7.5,14.1l-2.2-2.2
				l2.2-2.2c0.4,0.7,0.6,1.4,0.6,2.2C8.1,12.7,7.9,13.4,7.5,14.1z M22.5,29l-2.2-2.2c1.4-0.8,3.1-0.8,4.5,0L22.5,29z M26.1,25.4
				c-2.2-1.6-5.1-1.6-7.3,0l-9.9-9.9c0.8-1,1.2-2.3,1.2-3.6S9.7,9.3,8.9,8.2L11.1,6c1,0.8,2.3,1.2,3.6,1.2c1.3,0,2.6-0.4,3.6-1.2
				l2.1,2.1c-0.5,0.1-0.9,0.2-1.3,0.4c-0.7,0.4-1.2,1-1.6,1.7c-1.1,0.2-2.1,0.7-2.9,1.5c-2.2,2.2-2.2,5.7,0,7.9
				c1.1,1.1,2.5,1.6,3.9,1.6s2.9-0.5,3.9-1.6c0.7-0.7,1.2-1.6,1.4-2.5l3.3,1.1c-0.4,1.7,0,3.5,1,5L26.1,25.4z M20.2,15.8
				C20.2,15.8,20.2,15.8,20.2,15.8l2,0.7c-0.1,0.7-0.5,1.3-1,1.8c-1.4,1.4-3.7,1.4-5.1,0c-1.4-1.4-1.4-3.7,0-5.1
				c0.3-0.3,0.7-0.6,1.2-0.8C17.4,13.9,18.5,15.2,20.2,15.8z M29.7,21.8c-0.4-0.6-0.6-1.3-0.6-2c0.5,0.3,1,0.7,1.7,0.9L29.7,21.8z
				 M38.5,16.2c-0.9,1.5-2.7,3.1-4.7,3.1c-0.4,0-0.7,0-1-0.1l0,0c-2.1-0.3-3.2-1.5-3.6-2c0,0-0.1-0.1-0.1-0.2
				c-0.1-0.2-0.3-0.4-0.5-0.4L20.8,14c-1.2-0.5-1.9-1.5-1.6-2.6l0,0l0,0c0.1-0.5,0.5-0.9,0.9-1.1c0.4-0.2,0.9-0.3,1.4-0.2l8.7,2.8
				c0.5,0.2,1.1-0.1,1.2-0.6s-0.1-1.1-0.6-1.2l-7-2.2l-0.1-0.1l0,0l-3.6-3.6L23.4,4c0,0,0,0,0,0h0c0,0,0,0,0,0
				c2.1-1,4.1-0.4,4.9-0.1c2.9,1.3,4.5,2.2,5.7,2.9c1.6,0.9,2.4,1.4,4.5,1.5L38.5,16.2L38.5,16.2z M42.2,15.6h-1.7V7.1h1.7V15.6z
				 M48,15.6h-3.9V5.3H48V15.6z"/>
		</g>
	</g>
</g>
</svg>
