<svg width="200" height="200" viewBox="0 0 200 200" fill="none" xmlns="http://www.w3.org/2000/svg">
<path d="M168.618 160.512L131.839 123.733C144.345 108.36 148.045 87.6359 141.637 68.8878C135.229 50.1396 119.619 36.0091 100.325 31.5055C81.03 27.0015 60.7719 32.7554 46.7276 46.7271C32.7557 60.7706 27.001 81.0273 31.5059 100.323C36.0099 119.618 50.1402 135.227 68.8885 141.636C87.6369 148.043 108.362 144.344 123.734 131.837L160.514 168.617C162.791 170.57 166.196 170.441 168.315 168.315C170.441 166.196 170.57 162.791 168.616 160.514L168.618 160.512ZM54.8318 119.882C46.2045 111.262 41.3556 99.5671 41.3556 87.3693C41.3556 75.179 46.1973 63.4849 54.8175 54.8566C63.4377 46.2365 75.1326 41.3877 87.3305 41.3877C99.5284 41.3877 111.222 46.2365 119.844 54.8566C128.464 63.4838 133.305 75.1788 133.305 87.3693C133.305 99.5667 128.457 111.261 119.829 119.882C111.245 128.567 99.5435 133.459 87.3309 133.459C75.1183 133.459 63.4161 128.567 54.8318 119.882Z" fill="black"/>
</svg>
