<?xml version="1.0" encoding="UTF-8"?>
<svg width="100pt" height="100pt" version="1.1" viewBox="0 0 100 100" xmlns="http://www.w3.org/2000/svg">
 <g>
  <path d="m100 50c0 27.613-22.387 50-50 50s-50-22.387-50-50 22.387-50 50-50 50 22.387 50 50" fill="#00095b"/>
  <path d="m77.203 34.23c0.22656 0.63281 0.34766 1.3086 0.34766 1.9922v27.551c0 1.5664-0.62891 3.0703-1.7305 4.1797-1.1055 1.1055-2.6055 1.7266-4.1758 1.7266h-43.293c-1.5664 0-3.0703-0.62109-4.1758-1.7266-1.1055-1.1094-1.7266-2.6133-1.7266-4.1797v-27.551c0-0.64844 0.10156-1.2852 0.30859-1.8906 0.28516-0.85547 0.76953-1.6367 1.418-2.2812 0.24609-0.24609 0.50781-0.46875 0.79297-0.66797 0.98047-0.6875 2.1602-1.0664 3.3789-1.0664h43.293c1.207 0 2.3789 0.375 3.3555 1.0469 0.28906 0.19922 0.56641 0.42969 0.82031 0.6875 0.62109 0.61719 1.0938 1.3672 1.3828 2.1797zm-50.824 2.918v26.625c0 0.52344 0.21484 1.0273 0.58203 1.3906 0.36719 0.36719 0.86719 0.57422 1.3906 0.57422h43.293c0.52344 0 1.0273-0.20703 1.3984-0.57422 0.36719-0.36719 0.57422-0.86719 0.57422-1.3906v-26.699l-20.184 14.742c-2.0742 1.5117-4.8945 1.5117-6.9648 0zm44.422-2.8945h-41.707l19.691 14.379c0.69141 0.50391 1.6367 0.50391 2.3281 0z" fill="#fff" fill-rule="evenodd"/>
 </g>
</svg>
